<svg width="38" height="38" viewBox="0 0 38 38" fill="none" xmlns="http://www.w3.org/2000/svg">
<g clip-path="url(#clip0_10_23)">
<path d="M36.4167 4.75005C34.9005 5.81956 33.2217 6.63756 31.445 7.17255C30.4915 6.07611 29.2242 5.29898 27.8145 4.94627C26.4049 4.59356 24.9209 4.68228 23.5633 5.20044C22.2058 5.7186 21.0401 6.64119 20.2239 7.84344C19.4078 9.04569 18.9806 10.4696 19 11.9226V13.5059C16.2175 13.578 13.4604 12.9609 10.9741 11.7095C8.48788 10.4581 6.34971 8.61123 4.75004 6.33339C4.75004 6.33339 -1.58329 20.5834 12.6667 26.9167C9.40588 29.1302 5.52137 30.24 1.58337 30.0834C15.8334 38.0001 33.25 30.0834 33.25 11.8751C33.2486 11.434 33.2062 10.9941 33.1234 10.5609C34.7393 8.96725 35.8797 6.95518 36.4167 4.75005V4.75005Z" stroke="white" stroke-width="2" stroke-linecap="round" stroke-linejoin="round"/>
</g>
<defs>
<clipPath id="clip0_10_23">
<rect width="38" height="38" fill="white"/>
</clipPath>
</defs>
</svg>
