<svg width="56" height="56" viewBox="0 0 56 56" fill="none" xmlns="http://www.w3.org/2000/svg">
<path d="M43.9833 19.9733H5.48334C5.01921 19.9733 4.57409 20.1577 4.2459 20.4859C3.91771 20.8141 3.73334 21.2592 3.73334 21.7233V32.2233C3.73857 35.2027 4.37572 38.147 5.60273 40.862C6.82973 43.5769 8.61868 46.0007 10.8515 47.9733H5.48334C5.01921 47.9733 4.57409 48.1577 4.2459 48.4859C3.91771 48.8141 3.73334 49.2592 3.73334 49.7233C3.73334 50.1875 3.91771 50.6326 4.2459 50.9608C4.57409 51.289 5.01921 51.4733 5.48334 51.4733H43.9833C44.4475 51.4733 44.8926 51.289 45.2208 50.9608C45.549 50.6326 45.7333 50.1875 45.7333 49.7233C45.7333 49.2592 45.549 48.8141 45.2208 48.4859C44.8926 48.1577 44.4475 47.9733 43.9833 47.9733H38.6152C41.2953 45.5978 43.3277 42.5801 44.5215 39.2036C46.7442 39.0667 48.8311 38.0874 50.3569 36.4653C51.8827 34.8431 52.7325 32.7003 52.7333 30.4733V28.7233C52.7333 26.4027 51.8115 24.1771 50.1705 22.5361C48.5296 20.8952 46.304 19.9733 43.9833 19.9733ZM49.2333 30.4733C49.2326 31.6055 48.8658 32.7072 48.1877 33.6139C47.5097 34.5206 46.5567 35.1838 45.4708 35.5046C45.6441 34.4194 45.7318 33.3223 45.7333 32.2233V23.7752C46.7567 24.137 47.6427 24.8071 48.2695 25.6932C48.8963 26.5793 49.233 27.6379 49.2333 28.7233V30.4733ZM22.9833 14.7233V7.72333C22.9833 7.2592 23.1677 6.81408 23.4959 6.48589C23.8241 6.1577 24.2692 5.97333 24.7333 5.97333C25.1975 5.97333 25.6426 6.1577 25.9708 6.48589C26.299 6.81408 26.4833 7.2592 26.4833 7.72333V14.7233C26.4833 15.1875 26.299 15.6326 25.9708 15.9608C25.6426 16.289 25.1975 16.4733 24.7333 16.4733C24.2692 16.4733 23.8241 16.289 23.4959 15.9608C23.1677 15.6326 22.9833 15.1875 22.9833 14.7233ZM29.9833 14.7233V7.72333C29.9833 7.2592 30.1677 6.81408 30.4959 6.48589C30.8241 6.1577 31.2692 5.97333 31.7333 5.97333C32.1975 5.97333 32.6426 6.1577 32.9708 6.48589C33.299 6.81408 33.4833 7.2592 33.4833 7.72333V14.7233C33.4833 15.1875 33.299 15.6326 32.9708 15.9608C32.6426 16.289 32.1975 16.4733 31.7333 16.4733C31.2692 16.4733 30.8241 16.289 30.4959 15.9608C30.1677 15.6326 29.9833 15.1875 29.9833 14.7233ZM15.9833 14.7233V7.72333C15.9833 7.2592 16.1677 6.81408 16.4959 6.48589C16.8241 6.1577 17.2692 5.97333 17.7333 5.97333C18.1975 5.97333 18.6426 6.1577 18.9708 6.48589C19.299 6.81408 19.4833 7.2592 19.4833 7.72333V14.7233C19.4833 15.1875 19.299 15.6326 18.9708 15.9608C18.6426 16.289 18.1975 16.4733 17.7333 16.4733C17.2692 16.4733 16.8241 16.289 16.4959 15.9608C16.1677 15.6326 15.9833 15.1875 15.9833 14.7233Z" fill="#30261C" fill-opacity="0.8"/>
</svg>
