<svg width="52" height="52" viewBox="0 0 52 52" fill="none" xmlns="http://www.w3.org/2000/svg">
<path d="M15.4492 6.23838L12.8594 10.9297H9.00916V15.1488H10.4824L11.9908 22.6537H9.6346L12.7506 36.4363L14.7485 36.4174L16.7576 46.4319H35.7786L35.9113 45.7649L37.7861 36.4162L39.6864 36.435L42.7944 22.6524H40.5438L42.0426 15.1475H43.6598V10.9285H39.5696L36.9703 6.23712L15.4492 6.23838ZM16.5753 7.58612H35.8617L37.5013 10.5692H14.9229L16.5753 7.58612ZM10.7111 12.2712H41.9434V13.8136H10.7111V12.2712ZM11.6773 23.9939H40.7629L38.2548 35.076L26.2001 34.9767L14.1855 35.076L11.6773 23.9939Z" fill="#30261C" fill-opacity="0.8"/>
</svg>
