<svg width="56" height="56" viewBox="0 0 56 56" fill="none" xmlns="http://www.w3.org/2000/svg">
<path fill-rule="evenodd" clip-rule="evenodd" d="M16.1165 7.42517C15.7668 7.42524 15.4252 7.51318 15.1356 7.67767C14.846 7.84216 14.6217 8.07567 14.4916 8.3481L11.55 14.5205H45.1967L42.2551 8.3481C42.125 8.07567 41.9007 7.84216 41.6111 7.67767C41.3215 7.51318 40.9799 7.42524 40.6302 7.42517H16.1165ZM14.3865 47.3285L11.7461 32.9321H45.0006L42.3601 47.3285C42.2966 47.6754 42.0872 47.9918 41.7699 48.2204C41.4526 48.4489 41.0483 48.5747 40.6302 48.5748H16.1165C15.6984 48.5747 15.2941 48.4489 14.9768 48.2204C14.6595 47.9918 14.4501 47.6754 14.3865 47.3285ZM11.2698 18.1917H45.4804C47.5816 18.1917 49.28 19.432 49.28 20.9605V26.4921C49.28 28.0206 47.5781 29.255 45.4804 29.255H11.2663C9.16512 29.255 7.46667 28.0206 7.46667 26.4921V20.9605C7.46667 19.432 9.17213 18.1917 11.2698 18.1917Z" fill="#30261C" fill-opacity="0.8"/>
</svg>
