<svg width="56" height="56" viewBox="0 0 56 56" fill="none" xmlns="http://www.w3.org/2000/svg">
<path d="M44.3333 11.6667H30.3333V4.66669H25.6666V11.6667H11.6666C7.80729 11.6667 4.66663 14.8074 4.66663 18.6667V42C4.66663 44.5737 6.75963 46.6667 9.33329 46.6667H46.6666C49.2403 46.6667 51.3333 44.5737 51.3333 42V18.6667C51.3333 14.8074 48.1926 11.6667 44.3333 11.6667ZM11.6666 16.3334H44.3333C44.9521 16.3334 45.5456 16.5792 45.9832 17.0168C46.4208 17.4544 46.6666 18.0478 46.6666 18.6667L46.669 25.9467C44.5783 26.4787 43.2413 27.6594 42.1983 28.588C41.0153 29.638 40.2336 30.3334 38.493 30.3334C36.7546 30.3334 35.973 29.638 34.79 28.5904C33.4016 27.356 31.5023 25.6667 27.9883 25.6667C24.4766 25.6667 22.5773 27.356 21.189 28.5904C20.006 29.6404 19.2266 30.3334 17.4883 30.3334C15.7546 30.3334 14.9753 29.6404 13.797 28.5904C12.754 27.6617 11.4216 26.4787 9.33329 25.9467V18.6667C9.33329 18.0478 9.57913 17.4544 10.0167 17.0168C10.4543 16.5792 11.0478 16.3334 11.6666 16.3334ZM9.33329 42V31.0007C9.77896 31.2877 10.206 31.64 10.6936 32.0764C12.082 33.3107 13.979 35 17.4883 35C20.9976 35 22.8993 33.3107 24.2876 32.0764C25.4706 31.0264 26.25 30.3334 27.9883 30.3334C29.7266 30.3334 30.5083 31.0287 31.6913 32.0764C33.0796 33.3107 34.979 35 38.493 35C42.007 35 43.9086 33.3107 45.297 32.0764C45.7893 31.6377 46.2186 31.283 46.669 30.9937L46.6713 42H9.33329Z" fill="#30261C" fill-opacity="0.8"/>
</svg>
