<svg width="38" height="38" viewBox="0 0 38 38" fill="none" xmlns="http://www.w3.org/2000/svg">
<path d="M26.9166 3.16663H11.0833C6.71104 3.16663 3.16663 6.71104 3.16663 11.0833V26.9166C3.16663 31.2889 6.71104 34.8333 11.0833 34.8333H26.9166C31.2889 34.8333 34.8333 31.2889 34.8333 26.9166V11.0833C34.8333 6.71104 31.2889 3.16663 26.9166 3.16663Z" stroke="white" stroke-width="2" stroke-linecap="round" stroke-linejoin="round"/>
<path d="M25.3333 18.0025C25.5287 19.3202 25.3036 20.666 24.6901 21.8484C24.0765 23.0309 23.1058 23.9897 21.9159 24.5886C20.7259 25.1876 19.3775 25.396 18.0623 25.1844C16.7471 24.9727 15.5321 24.3518 14.5901 23.4098C13.6481 22.4679 13.0272 21.2529 12.8156 19.9377C12.6039 18.6224 12.8124 17.274 13.4113 16.0841C14.0102 14.8942 14.9691 13.9234 16.1515 13.3099C17.3339 12.6963 18.6797 12.4713 19.9974 12.6667C21.3416 12.866 22.586 13.4923 23.5468 14.4531C24.5076 15.414 25.134 16.6584 25.3333 18.0025Z" stroke="white" stroke-width="2" stroke-linecap="round" stroke-linejoin="round"/>
<path d="M27.7084 10.2916H27.7242" stroke="white" stroke-width="2" stroke-linecap="round" stroke-linejoin="round"/>
</svg>
